<?xml version="1.0" standalone="no"?>
<!DOCTYPE svg PUBLIC "-//W3C//DTD SVG 20010904//EN"
 "http://www.w3.org/TR/2001/REC-SVG-20010904/DTD/svg10.dtd">
<svg version="1.0" xmlns="http://www.w3.org/2000/svg"
 width="512.000000pt" height="374.000000pt" viewBox="0 0 512.000000 374.000000"
 preserveAspectRatio="xMidYMid meet">
<metadata>
Created by potrace 1.16, written by Peter Selinger 2001-2019
</metadata>
<g transform="translate(0.000000,374.000000) scale(0.100000,-0.100000)"
fill="#000000" stroke="none">
<path d="M1446 3719 c-3 -13 -12 -87 -21 -164 -9 -76 -17 -141 -19 -142 -2 -2
-130 67 -285 153 -156 86 -285 154 -287 151 -5 -5 637 -765 646 -766 3 -1 18
62 34 138 16 76 32 145 36 151 7 12 42 -7 493 -274 42 -25 77 -42 77 -38 0 6
-637 782 -665 811 -2 2 -6 -7 -9 -20z"/>
<path d="M5010 3364 c-47 -7 -86 -13 -87 -13 -2 -1 -3 -39 -3 -86 0 -111 -24
-178 -86 -235 -48 -44 -138 -90 -214 -108 -64 -16 -316 -46 -675 -82 -170 -17
-357 -37 -415 -45 -58 -8 -190 -19 -295 -25 -345 -19 -530 -41 -710 -85 -370
-88 -602 -276 -698 -565 -88 -263 -66 -689 53 -1044 l48 -145 -44 -78 c-51
-89 -85 -175 -115 -288 -27 -103 -37 -352 -19 -478 l12 -87 100 0 100 0 -6 27
c-14 62 -19 333 -7 409 22 133 72 262 147 374 20 30 38 69 41 86 4 22 -13 88
-55 215 -170 519 -141 952 78 1169 185 183 457 255 1095 290 110 6 247 17 305
25 58 8 263 30 455 50 576 58 689 77 820 141 137 67 235 181 271 318 18 67 19
277 2 275 -7 -1 -51 -7 -98 -15z"/>
<path d="M490 2800 c0 -5 27 -71 60 -146 33 -75 59 -138 57 -140 -2 -3 -545
-34 -589 -34 -13 0 -18 -4 -12 -9 12 -12 872 -284 883 -279 5 2 -12 62 -38
133 l-48 130 36 7 c20 4 159 7 309 7 149 1 272 5 272 9 0 4 -147 59 -327 121
-181 63 -390 136 -465 162 -76 27 -138 44 -138 39z"/>
<path d="M1153 1867 c-277 -51 -503 -95 -503 -98 0 -3 61 -48 135 -99 74 -52
135 -97 135 -100 0 -3 -82 -57 -183 -120 -285 -179 -380 -241 -375 -245 4 -5
997 201 1004 208 3 2 -49 51 -115 108 l-119 103 26 16 c15 9 142 81 282 160
140 78 259 147 265 152 18 16 -57 5 -552 -85z"/>
<path d="M2872 1408 c-16 -113 -16 -115 16 -123 46 -11 73 -35 94 -82 19 -42
19 -58 13 -257 -4 -117 -4 -378 0 -579 l7 -367 101 0 100 0 -6 281 -6 281 49
-65 c171 -226 379 -377 597 -433 88 -23 127 -26 383 -34 157 -5 340 -12 408
-15 l122 -6 0 99 0 99 -67 6 c-38 4 -189 9 -338 12 -309 7 -400 16 -505 51
-212 71 -424 281 -586 579 l-49 90 -6 140 c-7 159 -20 205 -77 280 -40 53
-133 109 -203 121 l-36 6 -11 -84z"/>
<path d="M4101 855 c-45 -39 -57 -86 -36 -142 15 -38 25 -49 63 -65 38 -17 51
-19 83 -9 57 17 89 61 89 123 0 73 -45 118 -118 118 -39 0 -57 -6 -81 -25z"/>
</g>
</svg>
