<?xml version="1.0" standalone="no"?>
<!DOCTYPE svg PUBLIC "-//W3C//DTD SVG 20010904//EN"
 "http://www.w3.org/TR/2001/REC-SVG-20010904/DTD/svg10.dtd">
<svg version="1.0" xmlns="http://www.w3.org/2000/svg"
 width="208.000000pt" height="242.000000pt" viewBox="0 0 208.000000 242.000000"
 preserveAspectRatio="xMidYMid meet">
<metadata>
Created by potrace 1.16, written by Peter Selinger 2001-2019
</metadata>
<g transform="translate(0.000000,242.000000) scale(0.100000,-0.100000)"
fill="#000000" stroke="none">
<path d="M920 2413 c-19 -2 -77 -10 -127 -19 -79 -13 -100 -21 -140 -53 -109
-85 -185 -114 -362 -136 -67 -8 -138 -22 -157 -31 -138 -65 -162 -391 -59
-798 66 -264 192 -539 342 -750 34 -47 35 -52 29 -108 -10 -87 -41 -176 -81
-235 -19 -29 -35 -57 -35 -63 0 -16 112 -85 197 -120 330 -138 777 -127 1089
26 39 19 86 47 105 63 l34 29 -47 98 c-26 55 -54 132 -62 173 l-15 74 75 112
c188 286 305 577 349 873 8 53 15 167 15 253 0 128 -4 169 -20 220 -39 128
-92 172 -227 189 -183 24 -218 32 -269 57 -30 14 -76 45 -103 68 -38 32 -63
45 -108 53 -137 27 -306 37 -423 25z m370 -77 c65 -12 85 -21 140 -62 84 -64
150 -92 247 -105 43 -5 106 -14 141 -19 86 -12 125 -39 159 -108 28 -57 28
-57 27 -262 0 -174 -4 -221 -23 -310 -33 -154 -86 -309 -152 -449 -58 -123
-178 -331 -190 -331 -8 0 7 97 26 170 19 73 59 188 138 395 70 187 122 359
112 375 -8 13 -42 13 -50 1 -3 -6 -19 -55 -36 -111 -16 -56 -68 -202 -114
-324 -90 -240 -117 -330 -136 -457 -21 -148 5 -319 71 -449 l29 -58 -22 -15
c-172 -112 -493 -176 -750 -148 -178 20 -371 79 -474 146 l-22 15 35 69 c50
99 68 204 61 366 -7 161 -28 245 -138 548 -44 122 -93 267 -108 322 -26 91
-31 100 -52 100 -22 0 -24 -4 -22 -40 2 -48 42 -178 133 -425 63 -172 111
-341 124 -435 5 -38 4 -39 -10 -20 -38 49 -131 217 -175 314 -144 323 -223
755 -173 946 33 129 61 152 214 170 177 22 271 56 376 136 51 39 89 51 214 69
83 11 303 4 400 -14z"/>
<path d="M756 1708 c-3 -7 -7 -38 -11 -68 -10 -91 -44 -177 -97 -247 -49 -66
-55 -93 -19 -93 26 0 95 80 127 147 30 64 56 181 52 232 -2 29 -8 37 -26 39
-12 2 -24 -3 -26 -10z"/>
<path d="M1287 1714 c-21 -21 9 -180 52 -268 38 -80 97 -148 125 -144 34 5 31
37 -7 77 -51 52 -94 151 -110 251 -11 72 -16 85 -33 88 -11 2 -23 0 -27 -4z"/>
</g>
</svg>
