<?xml version="1.0" standalone="no"?>
<!DOCTYPE svg PUBLIC "-//W3C//DTD SVG 20010904//EN"
 "http://www.w3.org/TR/2001/REC-SVG-20010904/DTD/svg10.dtd">
<svg version="1.0" xmlns="http://www.w3.org/2000/svg"
 width="241.000000pt" height="209.000000pt" viewBox="0 0 241.000000 209.000000"
 preserveAspectRatio="xMidYMid meet">
<metadata>
Created by potrace 1.16, written by Peter Selinger 2001-2019
</metadata>
<g transform="translate(0.000000,209.000000) scale(0.100000,-0.100000)"
fill="#000000" stroke="none">
<path d="M1080 2068 c-1 -7 -1 -76 0 -153 2 -280 -29 -446 -102 -552 -33 -49
-48 -58 -143 -91 -103 -35 -213 -97 -312 -175 -109 -86 -143 -103 -321 -162
-121 -41 -147 -53 -173 -83 -26 -29 -30 -41 -25 -70 6 -41 28 -68 78 -93 47
-24 86 -24 193 1 l86 21 106 -22 c163 -33 254 -16 391 73 l66 43 96 0 c94 0
96 0 210 -55 109 -51 120 -54 208 -58 103 -5 159 10 213 55 91 77 91 174 1
423 -33 91 -65 192 -72 225 -16 75 -7 214 21 338 15 69 19 118 17 216 -3 118
-4 126 -23 126 -19 0 -20 -9 -26 -145 -4 -88 -13 -173 -24 -215 -13 -49 -19
-110 -19 -205 l-1 -135 73 -210 c47 -136 72 -225 72 -253 0 -60 -26 -109 -73
-140 -37 -25 -49 -27 -141 -27 l-101 0 -115 54 c-110 52 -119 55 -210 59 -93
4 -96 3 -160 -32 -167 -92 -190 -100 -270 -100 -41 0 -110 8 -153 19 l-78 19
-97 -22 c-119 -27 -138 -27 -179 -3 -71 44 -44 96 65 127 90 25 258 91 299
118 21 13 69 49 108 80 81 65 196 127 309 167 92 33 131 66 176 150 56 105 71
189 77 430 6 237 3 269 -27 269 -11 0 -20 -6 -20 -12z"/>
<path d="M1881 956 c2 -2 49 -20 104 -41 55 -20 102 -39 104 -41 2 -2 -10 -22
-28 -45 -18 -22 -31 -42 -29 -44 6 -6 358 -19 358 -13 0 3 -50 24 -110 48
l-111 43 48 49 47 48 -194 0 c-106 0 -191 -2 -189 -4z"/>
<path d="M1978 532 l63 -82 -33 -14 c-18 -7 -42 -16 -52 -20 -10 -3 -17 -9
-14 -11 14 -15 278 -183 278 -178 0 3 -25 39 -55 80 -74 98 -74 99 -28 112 21
6 44 11 51 11 30 0 5 22 -90 78 -57 33 -121 70 -143 83 l-39 24 62 -83z"/>
<path d="M1663 575 c11 -39 39 -226 35 -231 -3 -2 -29 0 -58 6 -29 6 -54 9
-56 7 -1 -1 38 -79 87 -172 62 -118 88 -159 85 -135 -16 108 -26 213 -23 217
3 2 29 -3 58 -11 29 -9 54 -14 57 -12 3 4 -173 333 -186 346 -2 3 -2 -4 1 -15z"/>
</g>
</svg>
