<?xml version="1.0" standalone="no"?><!DOCTYPE svg PUBLIC "-//W3C//DTD SVG 1.1//EN" "http://www.w3.org/Graphics/SVG/1.1/DTD/svg11.dtd"><svg class="icon" height="512" viewBox="0 0 1024 1024" version="1.1" xmlns="http://www.w3.org/2000/svg"><path d="M845.048836 1014.638898c-9.274895 0-17.060938-7.238373-17.56804-16.622802-16.151197-297.004537 13.094386-368.265545 16.476756-375.396412 77.371586-247.717271-50.888694-303.370695-52.198031-303.899095l-4.619699-2.800217C638.508243 191.425831 392.755485 50.816605 390.319367 49.415989c-8.440205-4.819497-11.386467-15.549774-6.585226-23.988965 4.838767-8.45846 15.677564-11.330686 23.972737-6.565956 2.50914 1.418871 248.953585 142.410453 400.167328 268.560175 21.715119 10.403703 151.14072 84.828013 68.748825 347.968282-1.055786 2.690683-29.718202 72.750873-14.004127 360.735081 0.508116 9.677533-6.911799 17.970679-16.625844 18.515306C845.6675 1014.638898 845.339912 1014.638898 845.048836 1014.638898zM509.812869 1014.638898c-5.528425 0-10.985856-2.61766-14.404738-7.491924-118.112156-169.110384-41.177692-363.02921-13.86011-420.138017L121.104017 404.150025c-8.658259-4.383389-12.113651-14.967621-7.712006-23.62588 4.402659-8.693756 15.059914-12.058884 23.644135-7.730262l376.122582 190.825504c4.2556 2.164311 7.457441 5.984817 8.838787 10.568004 1.418871 4.563917 0.874244 9.52946-1.454368 13.694795-1.238343 2.201837-120.840365 220.837825 3.673446 399.110527 5.564937 7.966572 3.636935 18.917945-4.329636 24.482882C516.832174 1013.620637 513.303759 1014.638898 509.812869 1014.638898zM728.538108 640.045736c-5.201852 0-10.367192-2.292101-13.858082-6.730257-120.038129-153.523085-44.997184-251.663538-41.758831-255.774106 6.109564-7.619714 17.131932-8.838787 24.697893-2.836728 7.602472 6.001044 8.877327 16.986901 2.946262 24.590387-2.655186 3.454378-60.201114 81.898992 41.831853 212.339811 5.966561 7.676509 4.620713 18.699891-3.019285 24.70195C736.14058 638.844918 732.320074 640.045736 728.538108 640.045736z" /></svg>